<mxfile host="app.diagrams.net" modified="2020-10-03T13:56:52.132Z" agent="5.0 (Windows NT 10.0; Win64; x64) AppleWebKit/537.36 (KHTML, like Gecko) Chrome/85.0.4183.121 Safari/537.36" etag="J2vVsQAttw8It3xeMjhR" version="13.6.6" type="github">
  <diagram id="yQwmWRwBAUCbV12pshmC" name="Page-1">
    <mxGraphModel dx="1695" dy="1640" grid="1" gridSize="10" guides="1" tooltips="1" connect="1" arrows="1" fold="1" page="1" pageScale="1" pageWidth="827" pageHeight="1169" math="0" shadow="0">
      <root>
        <mxCell id="0" />
        <mxCell id="1" parent="0" />
        <mxCell id="I8uPjdVDxUc8KIIH5mMz-4" style="edgeStyle=orthogonalEdgeStyle;rounded=0;orthogonalLoop=1;jettySize=auto;html=1;exitX=0.5;exitY=1;exitDx=0;exitDy=0;entryX=0.5;entryY=0;entryDx=0;entryDy=0;" edge="1" parent="1" source="I8uPjdVDxUc8KIIH5mMz-1" target="I8uPjdVDxUc8KIIH5mMz-2">
          <mxGeometry relative="1" as="geometry" />
        </mxCell>
        <mxCell id="I8uPjdVDxUc8KIIH5mMz-1" value="INICIO" style="rounded=1;whiteSpace=wrap;html=1;arcSize=50;strokeColor=#82b366;fillColor=#66FF66;" vertex="1" parent="1">
          <mxGeometry x="280" y="-50" width="90" height="30" as="geometry" />
        </mxCell>
        <mxCell id="I8uPjdVDxUc8KIIH5mMz-45" style="edgeStyle=none;rounded=0;orthogonalLoop=1;jettySize=auto;html=1;exitX=0.5;exitY=1;exitDx=0;exitDy=0;entryX=0.5;entryY=0;entryDx=0;entryDy=0;" edge="1" parent="1" source="I8uPjdVDxUc8KIIH5mMz-2" target="I8uPjdVDxUc8KIIH5mMz-44">
          <mxGeometry relative="1" as="geometry" />
        </mxCell>
        <mxCell id="I8uPjdVDxUc8KIIH5mMz-2" value="numLivros" style="shape=parallelogram;perimeter=parallelogramPerimeter;whiteSpace=wrap;html=1;fixedSize=1;" vertex="1" parent="1">
          <mxGeometry x="265" y="7" width="120" height="30" as="geometry" />
        </mxCell>
        <mxCell id="I8uPjdVDxUc8KIIH5mMz-15" style="edgeStyle=none;rounded=0;orthogonalLoop=1;jettySize=auto;html=1;exitX=0.5;exitY=1;exitDx=0;exitDy=0;entryX=0.5;entryY=0;entryDx=0;entryDy=0;" edge="1" parent="1" source="I8uPjdVDxUc8KIIH5mMz-5" target="I8uPjdVDxUc8KIIH5mMz-13">
          <mxGeometry relative="1" as="geometry" />
        </mxCell>
        <mxCell id="I8uPjdVDxUc8KIIH5mMz-5" value="descB = &lt;br&gt;numLivros*0,50 + 2,50" style="rounded=0;whiteSpace=wrap;html=1;fillColor=#fff2cc;strokeColor=#d6b656;" vertex="1" parent="1">
          <mxGeometry x="257.5" y="240" width="135" height="60" as="geometry" />
        </mxCell>
        <mxCell id="I8uPjdVDxUc8KIIH5mMz-14" style="edgeStyle=none;rounded=0;orthogonalLoop=1;jettySize=auto;html=1;exitX=0.75;exitY=1;exitDx=0;exitDy=0;entryX=0.37;entryY=0.111;entryDx=0;entryDy=0;entryPerimeter=0;" edge="1" parent="1" source="I8uPjdVDxUc8KIIH5mMz-6" target="I8uPjdVDxUc8KIIH5mMz-13">
          <mxGeometry relative="1" as="geometry" />
        </mxCell>
        <mxCell id="I8uPjdVDxUc8KIIH5mMz-6" value="descA = &lt;br&gt;numLivros*0,25 + 7,50" style="rounded=0;whiteSpace=wrap;html=1;fillColor=#dae8fc;strokeColor=#6c8ebf;" vertex="1" parent="1">
          <mxGeometry x="107.5" y="240" width="135" height="60" as="geometry" />
        </mxCell>
        <mxCell id="I8uPjdVDxUc8KIIH5mMz-16" style="edgeStyle=none;rounded=0;orthogonalLoop=1;jettySize=auto;html=1;exitX=0.25;exitY=1;exitDx=0;exitDy=0;entryX=0.621;entryY=0.098;entryDx=0;entryDy=0;entryPerimeter=0;" edge="1" parent="1" source="I8uPjdVDxUc8KIIH5mMz-7" target="I8uPjdVDxUc8KIIH5mMz-13">
          <mxGeometry relative="1" as="geometry">
            <Array as="points" />
          </mxGeometry>
        </mxCell>
        <mxCell id="I8uPjdVDxUc8KIIH5mMz-7" value="descC = &lt;br&gt;numLivros*0,65 + 1,50" style="rounded=0;whiteSpace=wrap;html=1;fillColor=#f5f5f5;strokeColor=#666666;fontColor=#333333;" vertex="1" parent="1">
          <mxGeometry x="407.5" y="240" width="135" height="60" as="geometry" />
        </mxCell>
        <mxCell id="I8uPjdVDxUc8KIIH5mMz-19" style="edgeStyle=none;rounded=0;orthogonalLoop=1;jettySize=auto;html=1;exitX=0;exitY=0.5;exitDx=0;exitDy=0;" edge="1" parent="1" source="I8uPjdVDxUc8KIIH5mMz-13" target="I8uPjdVDxUc8KIIH5mMz-18">
          <mxGeometry relative="1" as="geometry" />
        </mxCell>
        <mxCell id="I8uPjdVDxUc8KIIH5mMz-20" value="SIM" style="edgeLabel;html=1;align=center;verticalAlign=middle;resizable=0;points=[];" vertex="1" connectable="0" parent="I8uPjdVDxUc8KIIH5mMz-19">
          <mxGeometry x="-0.4115" relative="1" as="geometry">
            <mxPoint x="-15.83" as="offset" />
          </mxGeometry>
        </mxCell>
        <mxCell id="I8uPjdVDxUc8KIIH5mMz-30" style="edgeStyle=none;rounded=0;orthogonalLoop=1;jettySize=auto;html=1;exitX=1;exitY=0.5;exitDx=0;exitDy=0;entryX=0;entryY=0.5;entryDx=0;entryDy=0;" edge="1" parent="1" source="I8uPjdVDxUc8KIIH5mMz-13" target="I8uPjdVDxUc8KIIH5mMz-28">
          <mxGeometry relative="1" as="geometry" />
        </mxCell>
        <mxCell id="I8uPjdVDxUc8KIIH5mMz-31" value="NAO" style="edgeLabel;html=1;align=center;verticalAlign=middle;resizable=0;points=[];" vertex="1" connectable="0" parent="I8uPjdVDxUc8KIIH5mMz-30">
          <mxGeometry x="0.4326" y="-1" relative="1" as="geometry">
            <mxPoint x="-26.67" y="-1" as="offset" />
          </mxGeometry>
        </mxCell>
        <mxCell id="I8uPjdVDxUc8KIIH5mMz-13" value="descA &amp;gt;= descB" style="rhombus;whiteSpace=wrap;html=1;" vertex="1" parent="1">
          <mxGeometry x="267.5" y="360" width="115" height="90" as="geometry" />
        </mxCell>
        <mxCell id="I8uPjdVDxUc8KIIH5mMz-23" style="edgeStyle=none;rounded=0;orthogonalLoop=1;jettySize=auto;html=1;exitX=0;exitY=1;exitDx=0;exitDy=0;entryX=0.5;entryY=0;entryDx=0;entryDy=0;" edge="1" parent="1" source="I8uPjdVDxUc8KIIH5mMz-18" target="I8uPjdVDxUc8KIIH5mMz-22">
          <mxGeometry relative="1" as="geometry" />
        </mxCell>
        <mxCell id="I8uPjdVDxUc8KIIH5mMz-24" value="SIM" style="edgeLabel;html=1;align=center;verticalAlign=middle;resizable=0;points=[];" vertex="1" connectable="0" parent="I8uPjdVDxUc8KIIH5mMz-23">
          <mxGeometry x="-0.4497" y="-1" relative="1" as="geometry">
            <mxPoint x="-8.15" y="8.66" as="offset" />
          </mxGeometry>
        </mxCell>
        <mxCell id="I8uPjdVDxUc8KIIH5mMz-26" style="edgeStyle=none;rounded=0;orthogonalLoop=1;jettySize=auto;html=1;exitX=1;exitY=1;exitDx=0;exitDy=0;entryX=0.5;entryY=0;entryDx=0;entryDy=0;" edge="1" parent="1" source="I8uPjdVDxUc8KIIH5mMz-18" target="I8uPjdVDxUc8KIIH5mMz-25">
          <mxGeometry relative="1" as="geometry" />
        </mxCell>
        <mxCell id="I8uPjdVDxUc8KIIH5mMz-27" value="NAO" style="edgeLabel;html=1;align=center;verticalAlign=middle;resizable=0;points=[];" vertex="1" connectable="0" parent="I8uPjdVDxUc8KIIH5mMz-26">
          <mxGeometry x="-0.3268" relative="1" as="geometry">
            <mxPoint y="4.61" as="offset" />
          </mxGeometry>
        </mxCell>
        <mxCell id="I8uPjdVDxUc8KIIH5mMz-18" value="descC &amp;gt;= descA" style="rhombus;whiteSpace=wrap;html=1;strokeColor=#82b366;fillColor=#CCFFCC;" vertex="1" parent="1">
          <mxGeometry x="45" y="360" width="115" height="90" as="geometry" />
        </mxCell>
        <mxCell id="I8uPjdVDxUc8KIIH5mMz-40" style="edgeStyle=none;rounded=0;orthogonalLoop=1;jettySize=auto;html=1;exitX=1;exitY=0.75;exitDx=0;exitDy=0;entryX=0;entryY=0.5;entryDx=0;entryDy=0;" edge="1" parent="1" source="I8uPjdVDxUc8KIIH5mMz-22" target="I8uPjdVDxUc8KIIH5mMz-39">
          <mxGeometry relative="1" as="geometry" />
        </mxCell>
        <mxCell id="I8uPjdVDxUc8KIIH5mMz-22" value="melhorDesc= descC" style="shape=document;whiteSpace=wrap;html=1;boundedLbl=1;fillColor=#f5f5f5;strokeColor=#666666;fontColor=#333333;" vertex="1" parent="1">
          <mxGeometry x="-40" y="480" width="120" height="50" as="geometry" />
        </mxCell>
        <mxCell id="I8uPjdVDxUc8KIIH5mMz-41" style="edgeStyle=none;rounded=0;orthogonalLoop=1;jettySize=auto;html=1;exitX=1;exitY=0.75;exitDx=0;exitDy=0;entryX=0.25;entryY=0;entryDx=0;entryDy=0;" edge="1" parent="1" source="I8uPjdVDxUc8KIIH5mMz-25" target="I8uPjdVDxUc8KIIH5mMz-39">
          <mxGeometry relative="1" as="geometry" />
        </mxCell>
        <mxCell id="I8uPjdVDxUc8KIIH5mMz-25" value="melhorDesc= descA" style="shape=document;whiteSpace=wrap;html=1;boundedLbl=1;fillColor=#dae8fc;strokeColor=#6c8ebf;" vertex="1" parent="1">
          <mxGeometry x="122.5" y="480" width="120" height="50" as="geometry" />
        </mxCell>
        <mxCell id="I8uPjdVDxUc8KIIH5mMz-34" style="edgeStyle=none;rounded=0;orthogonalLoop=1;jettySize=auto;html=1;exitX=0;exitY=1;exitDx=0;exitDy=0;entryX=0.5;entryY=0;entryDx=0;entryDy=0;" edge="1" parent="1" source="I8uPjdVDxUc8KIIH5mMz-28" target="I8uPjdVDxUc8KIIH5mMz-32">
          <mxGeometry relative="1" as="geometry" />
        </mxCell>
        <mxCell id="I8uPjdVDxUc8KIIH5mMz-36" value="SIM" style="edgeLabel;html=1;align=center;verticalAlign=middle;resizable=0;points=[];" vertex="1" connectable="0" parent="I8uPjdVDxUc8KIIH5mMz-34">
          <mxGeometry x="-0.4143" y="1" relative="1" as="geometry">
            <mxPoint as="offset" />
          </mxGeometry>
        </mxCell>
        <mxCell id="I8uPjdVDxUc8KIIH5mMz-35" style="edgeStyle=none;rounded=0;orthogonalLoop=1;jettySize=auto;html=1;exitX=1;exitY=1;exitDx=0;exitDy=0;entryX=0.5;entryY=0;entryDx=0;entryDy=0;" edge="1" parent="1" source="I8uPjdVDxUc8KIIH5mMz-28" target="I8uPjdVDxUc8KIIH5mMz-33">
          <mxGeometry relative="1" as="geometry" />
        </mxCell>
        <mxCell id="I8uPjdVDxUc8KIIH5mMz-37" value="NAO" style="edgeLabel;html=1;align=center;verticalAlign=middle;resizable=0;points=[];" vertex="1" connectable="0" parent="I8uPjdVDxUc8KIIH5mMz-35">
          <mxGeometry x="-0.3508" relative="1" as="geometry">
            <mxPoint as="offset" />
          </mxGeometry>
        </mxCell>
        <mxCell id="I8uPjdVDxUc8KIIH5mMz-28" value="descB &amp;gt;= descC" style="rhombus;whiteSpace=wrap;html=1;strokeColor=#d79b00;fillColor=#FF9999;" vertex="1" parent="1">
          <mxGeometry x="500" y="360" width="115" height="90" as="geometry" />
        </mxCell>
        <mxCell id="I8uPjdVDxUc8KIIH5mMz-42" style="edgeStyle=none;rounded=0;orthogonalLoop=1;jettySize=auto;html=1;exitX=0;exitY=0.75;exitDx=0;exitDy=0;entryX=0.75;entryY=0;entryDx=0;entryDy=0;" edge="1" parent="1" source="I8uPjdVDxUc8KIIH5mMz-32" target="I8uPjdVDxUc8KIIH5mMz-39">
          <mxGeometry relative="1" as="geometry" />
        </mxCell>
        <mxCell id="I8uPjdVDxUc8KIIH5mMz-32" value="melhorDesc= descB" style="shape=document;whiteSpace=wrap;html=1;boundedLbl=1;fillColor=#fff2cc;strokeColor=#d6b656;" vertex="1" parent="1">
          <mxGeometry x="416.25" y="480" width="120" height="50" as="geometry" />
        </mxCell>
        <mxCell id="I8uPjdVDxUc8KIIH5mMz-43" style="edgeStyle=none;rounded=0;orthogonalLoop=1;jettySize=auto;html=1;exitX=0;exitY=0.75;exitDx=0;exitDy=0;entryX=1;entryY=0.5;entryDx=0;entryDy=0;" edge="1" parent="1" source="I8uPjdVDxUc8KIIH5mMz-33" target="I8uPjdVDxUc8KIIH5mMz-39">
          <mxGeometry relative="1" as="geometry" />
        </mxCell>
        <mxCell id="I8uPjdVDxUc8KIIH5mMz-33" value="melhorDesc= descC" style="shape=document;whiteSpace=wrap;html=1;boundedLbl=1;fillColor=#f5f5f5;strokeColor=#666666;fontColor=#333333;" vertex="1" parent="1">
          <mxGeometry x="578.75" y="480" width="120" height="50" as="geometry" />
        </mxCell>
        <mxCell id="I8uPjdVDxUc8KIIH5mMz-39" value="FIM" style="rounded=1;whiteSpace=wrap;html=1;arcSize=50;strokeColor=#82b366;fillColor=#66FF66;" vertex="1" parent="1">
          <mxGeometry x="280" y="570" width="90" height="30" as="geometry" />
        </mxCell>
        <mxCell id="I8uPjdVDxUc8KIIH5mMz-49" style="edgeStyle=orthogonalEdgeStyle;rounded=0;orthogonalLoop=1;jettySize=auto;html=1;exitX=0.5;exitY=1;exitDx=0;exitDy=0;entryX=0.5;entryY=0;entryDx=0;entryDy=0;" edge="1" parent="1" source="I8uPjdVDxUc8KIIH5mMz-44" target="I8uPjdVDxUc8KIIH5mMz-6">
          <mxGeometry relative="1" as="geometry" />
        </mxCell>
        <mxCell id="I8uPjdVDxUc8KIIH5mMz-50" style="edgeStyle=orthogonalEdgeStyle;rounded=0;orthogonalLoop=1;jettySize=auto;html=1;exitX=0.5;exitY=1;exitDx=0;exitDy=0;" edge="1" parent="1" source="I8uPjdVDxUc8KIIH5mMz-44" target="I8uPjdVDxUc8KIIH5mMz-7">
          <mxGeometry relative="1" as="geometry" />
        </mxCell>
        <mxCell id="I8uPjdVDxUc8KIIH5mMz-51" value="SIM" style="edgeStyle=orthogonalEdgeStyle;rounded=0;orthogonalLoop=1;jettySize=auto;html=1;exitX=0.5;exitY=1;exitDx=0;exitDy=0;" edge="1" parent="1" source="I8uPjdVDxUc8KIIH5mMz-44" target="I8uPjdVDxUc8KIIH5mMz-5">
          <mxGeometry relative="1" as="geometry" />
        </mxCell>
        <mxCell id="I8uPjdVDxUc8KIIH5mMz-52" style="edgeStyle=orthogonalEdgeStyle;rounded=0;orthogonalLoop=1;jettySize=auto;html=1;exitX=1;exitY=0.5;exitDx=0;exitDy=0;entryX=0.5;entryY=1;entryDx=0;entryDy=0;" edge="1" parent="1" source="I8uPjdVDxUc8KIIH5mMz-44" target="I8uPjdVDxUc8KIIH5mMz-39">
          <mxGeometry relative="1" as="geometry">
            <Array as="points">
              <mxPoint x="720" y="112" />
              <mxPoint x="720" y="620" />
              <mxPoint x="325" y="620" />
            </Array>
          </mxGeometry>
        </mxCell>
        <mxCell id="I8uPjdVDxUc8KIIH5mMz-53" value="NAO" style="edgeLabel;html=1;align=center;verticalAlign=middle;resizable=0;points=[];" vertex="1" connectable="0" parent="I8uPjdVDxUc8KIIH5mMz-52">
          <mxGeometry x="-0.7517" y="2" relative="1" as="geometry">
            <mxPoint x="1" as="offset" />
          </mxGeometry>
        </mxCell>
        <mxCell id="I8uPjdVDxUc8KIIH5mMz-44" value="numLivros &amp;gt;= 0" style="rhombus;whiteSpace=wrap;html=1;" vertex="1" parent="1">
          <mxGeometry x="267.5" y="67" width="115" height="90" as="geometry" />
        </mxCell>
      </root>
    </mxGraphModel>
  </diagram>
</mxfile>
